<?xml version="1.0" encoding="UTF-8" standalone="no"?>
<!DOCTYPE svg PUBLIC "-//W3C//DTD SVG 1.1//EN" "http://www.w3.org/Graphics/SVG/1.1/DTD/svg11.dtd">
<svg version="1.1" xmlns="http://www.w3.org/2000/svg" xmlns:xlink="http://www.w3.org/1999/xlink" preserveAspectRatio="xMidYMid meet" viewBox="0 0 512 512" width="512" height="512"><defs><path d="M464 256C464 370.8 370.8 464 256 464C141.2 464 48 370.8 48 256C48 141.2 141.2 48 256 48C370.8 48 464 141.2 464 256Z" id="bxzDDnE4p"></path><path d="M384 256C384 326.65 326.65 384 256 384C185.35 384 128 326.65 128 256C128 185.35 185.35 128 256 128C326.65 128 384 185.35 384 256Z" id="a4yovtWqf"></path><path d="M273 288L217 320L217 256L217 192L273 224L329 256L273 288Z" id="a35471SckR"></path></defs><g><g><g><use xlink:href="#bxzDDnE4p" opacity="1" fill="#696969" fill-opacity="1"></use></g><g><use xlink:href="#a4yovtWqf" opacity="1" fill="#ffffff" fill-opacity="1"></use></g><g><use xlink:href="#a35471SckR" opacity="1" fill="#696969" fill-opacity="1"></use></g></g></g></svg>